<?xml version="1.0" standalone="no"?>
<!DOCTYPE svg PUBLIC "-//W3C//DTD SVG 20010904//EN"
 "http://www.w3.org/TR/2001/REC-SVG-20010904/DTD/svg10.dtd">
<svg version="1.0" xmlns="http://www.w3.org/2000/svg"
 width="512.000000pt" height="512.000000pt" viewBox="0 0 512.000000 512.000000"
 preserveAspectRatio="xMidYMid meet">
<metadata>
Created by potrace 1.11, written by Peter Selinger 2001-2013
</metadata>
<g transform="translate(0.000000,512.000000) scale(0.100000,-0.100000)"
fill="#000000" stroke="none">
<path d="M0 2560 l0 -2560 2560 0 2560 0 0 2560 0 2560 -2560 0 -2560 0 0
-2560z m2002 588 c107 -49 194 -152 223 -263 19 -75 19 -125 0 -200 -27 -102
-60 -161 -257 -457 l-190 -287 -60 43 c-33 23 -60 47 -59 52 1 5 61 92 134
193 164 229 155 214 115 197 -82 -34 -185 -26 -287 21 -55 26 -139 115 -169
180 -24 51 -27 70 -27 158 0 87 3 107 26 156 48 102 135 180 245 219 86 30
226 25 306 -12z m940 5 c113 -51 188 -158 196 -279 4 -62 1 -79 -22 -130 -16
-36 -47 -78 -77 -106 l-49 -46 32 -20 c95 -59 150 -150 156 -261 6 -104 -21
-173 -93 -246 -161 -161 -443 -163 -605 -5 -72 71 -95 127 -95 235 0 75 4 98
23 135 27 52 82 112 129 141 l33 21 -51 49 c-28 27 -61 73 -76 105 -50 110
-17 251 80 341 82 76 136 94 272 90 76 -2 111 -8 147 -24z m1148 -75 l0 -82
-114 -210 c-63 -116 -193 -353 -288 -527 l-174 -316 -72 36 -72 36 265 478
c146 262 268 484 271 492 5 13 -32 15 -290 15 l-296 0 0 80 0 80 385 0 385 0
0 -82z m-2875 -954 c51 -33 52 -108 2 -150 -88 -74 -200 55 -120 138 31 32 79
37 118 12z"/>
<path d="M1749 3016 c-52 -18 -136 -94 -154 -139 -33 -82 -7 -204 53 -255 58
-48 118 -72 184 -72 81 1 132 24 185 84 67 76 79 175 34 264 -55 106 -190 158
-302 118z"/>
<path d="M2697 3016 c-50 -19 -76 -42 -98 -91 -23 -49 -24 -94 -4 -143 33 -78
90 -112 189 -112 74 0 118 20 160 73 28 35 31 46 31 106 0 59 -4 72 -28 104
-15 20 -42 44 -60 53 -43 23 -143 28 -190 10z"/>
<path d="M2728 2509 c-159 -24 -238 -193 -148 -317 45 -63 90 -85 184 -90 91
-5 129 6 185 54 92 77 92 221 0 298 -60 51 -132 69 -221 55z"/>
</g>
</svg>
